<?xml version="1.0" encoding="UTF-8"?>
<svg id="a" xmlns="http://www.w3.org/2000/svg" viewBox="0 0 512 512">
  <path d="m195.72,17.58c73.14-21.69,148.34-8.16,207.45,30.71-37.75-13.19-79.84-15.08-121.1-2.84-104.53,31-164.13,140.87-133.12,245.4,31,104.53,140.87,164.13,245.4,133.12,41.26-12.24,75.51-36.77,99.97-68.41-28.36,64.82-84.02,117.17-157.16,138.86-131.68,39.06-270.08-36.02-309.14-167.7C-11.04,195.04,64.04,56.63,195.72,17.58Z" style="fill: #d1b863;"/>
  <path d="m507.1,127.22c-73.11,7.85-79.47,14.22-87.33,87.33-7.85-73.11-14.22-79.47-87.33-87.33,73.11-7.85,79.47-14.22,87.33-87.33,7.85,73.11,14.22,79.47,87.33,87.33Z" style="fill: #d1b863;"/>
</svg>
